Coordinates
version=1
nRows=29
nColumns=22
inDegrees=yes

Units are S.I. units (second, meters, Newtons, ...)
If the header above contains a line with 'inDegrees', this indicates whether rotational values are in degrees (yes) or radians (no).

endheader
time	pelvis_tilt	pelvis_list	pelvis_rotation	pelvis_tx	pelvis_ty	pelvis_tz	hip_flexion_r	hip_adduction_r	hip_rotation_r	knee_angle_r	ankle_angle_r	subtalar_angle_r	hip_flexion_l	hip_adduction_l	hip_rotation_l	knee_angle_l	ankle_angle_l	subtalar_angle_l	lumbar_extension	lumbar_bending	lumbar_rotation
      2.96000000	     -5.98700310	      4.31241013	    -56.09519506	     -0.00408776	      0.84781685	     -0.57273327	     29.69274884	      3.08684588	    -21.49276463	     -8.49466510	      0.25663761	     -2.43918749	     -7.53645814	     -3.92730376	    -23.69830453	    -13.21393080	     24.09181457	      9.75748551	     -1.15450765	      4.65224784	     -3.26037045
      2.97000000	     -6.36762346	      4.08361402	    -56.17594629	     -0.00042204	      0.84694595	     -0.56615952	     29.65393204	      3.58033065	    -21.41768706	     -9.08698119	     -0.27484881	     -3.92647999	     -7.80170268	     -4.56096487	    -23.63452577	    -13.82172127	     24.15776291	     10.03814105	     -1.12072447	      5.32980932	     -3.52555408
      2.98000000	     -6.77431225	      3.80387743	    -56.26152649	      0.00318057	      0.84639321	     -0.55939856	     29.58937901	      4.13382763	    -21.26560726	     -9.76401540	     -0.72303966	     -5.51549474	     -8.08553504	     -5.26834938	    -23.53447933	    -14.47352971	     24.10708823	     10.34855298	     -1.11885933	      6.05950552	     -3.79903922
      2.99000000	     -7.19264592	      3.49713124	    -56.37750108	      0.00666849	      0.84615051	     -0.55243521	     29.50825399	      4.73451829	    -21.01680199	    -10.50836114	     -1.00408501	     -7.12992809	     -8.38092519	     -6.01844535	    -23.41827243	    -15.15938931	     23.93059048	     10.70133852	     -1.13642356	      6.80482130	     -4.04675433
      3.00000000	     -7.62105918	      3.17277043	    -56.50936159	      0.01005736	      0.84625186	     -0.54529947	     29.38597003	      5.37192844	    -20.72315309	    -11.24560337	     -1.18134780	     -8.60479151	     -8.66621486	     -6.80724498	    -23.26781927	    -15.89780931	     23.59197269	     11.08101973	     -1.16555232	      7.55979911	     -4.29709198
      3.01000000	     -8.04643654	      2.85389523	    -56.66196389	      0.01335199	      0.84668896	     -0.53801714	     29.20662925	      6.02749945	    -20.37361300	    -11.91644078	     -1.22127858	     -9.83871217	     -8.91581191	     -7.60955089	    -23.08994949	    -16.70835644	     23.08654829	     11.47759106	     -1.19068978	      8.30133119	     -4.56360866
      3.02000000	     -8.45442276	      2.56943142	    -56.86445189	      0.01651046	      0.84741860	     -0.53056053	     28.99806637	      6.67804311	    -19.99385440	    -12.54795903	     -1.09012727	    -10.83015110	     -9.12790277	     -8.38475438	    -22.88977484	    -17.56372719	     22.41384829	     11.90754079	     -1.19607912	      8.99028975	     -4.77751799
      3.03000000	     -8.85293010	      2.32823011	    -57.10757363	      0.01955786	      0.84840918	     -0.52294544	     28.74895479	      7.32094550	    -19.62297634	    -13.09387381	     -0.82723259	    -11.42823778	     -9.26917592	     -9.14078845	    -22.66298349	    -18.50029892	     21.59398350	     12.27391993	     -1.16172405	      9.63176949	     -4.93921926
      3.04000000	     -9.16859083	      2.16100441	    -57.36500189	      0.02250780	      0.84968455	     -0.51523684	     28.40425030	      7.88512518	    -19.19421628	    -13.46746190	     -0.47744165	    -11.92000212	     -9.33294830	     -9.79556902	    -22.36679241	    -19.51621993	     20.52801536	     12.77978654	     -1.10212970	     10.13683069	     -5.15637440
      3.05000000	     -9.44646876	      2.07073118	    -57.66075597	      0.02535278	      0.85113666	     -0.50741397	     28.01822578	      8.40109435	    -18.78124599	    -13.71910504	     -0.04451398	    -12.09518204	     -9.28806362	    -10.38474965	    -22.02171492	    -20.63189505	     19.30166844	     13.21348813	     -0.98483121	     10.54946798	     -5.31847213
      3.06000000	     -9.66505586	      2.06126806	    -57.97580081	      0.02810769	      0.85273483	     -0.49950903	     27.56960085	      8.84809869	    -18.38310113	    -13.81243051	      0.40870080	    -12.07630366	     -9.12062894	    -10.89296557	    -21.60869385	    -21.86475495	     17.89410940	     13.57983657	     -0.81378498	     10.84642709	     -5.45073494
      3.07000000	     -9.79679182	      2.12113219	    -58.30881071	      0.03078933	      0.85443604	     -0.49157262	     27.05775144	      9.20226528	    -17.97330262	    -13.79240435	      0.91284578	    -11.92609830	     -8.83942680	    -11.30769758	    -21.15696463	    -23.23659404	     16.34422197	     13.98973503	     -0.61974417	     11.01796315	     -5.60079667
      3.08000000	     -9.85321304	      2.25342727	    -58.65511947	      0.03340201	      0.85618755	     -0.48361817	     26.48600133	      9.47417222	    -17.58624825	    -13.62637076	      1.38953059	    -11.73249615	     -8.42886758	    -11.63031481	    -20.63152144	    -24.74027736	     14.63524788	     14.26889280	     -0.38941683	     11.06838779	     -5.69709564
      3.09000000	     -9.85589279	      2.43365343	    -59.01508765	      0.03595194	      0.85790787	     -0.47565790	     25.88074778	      9.68593603	    -17.20644694	    -13.38455939	      1.91050974	    -11.45159340	     -7.89446919	    -11.90245775	    -20.06598910	    -26.38750572	     12.82323510	     14.58417959	     -0.13232374	     11.04212861	     -5.77725680
      3.10000000	     -9.77791247	      2.62984204	    -59.38639593	      0.03844766	      0.85964364	     -0.46775117	     25.19112279	      9.83363636	    -16.82629324	    -13.02938034	      2.33324468	    -11.27551617	     -7.27479286	    -12.10777524	    -19.44851091	    -28.16384987	     10.89504580	     14.72399481	      0.09624667	     10.93176961	     -5.82283864
      3.11000000	     -9.67547390	      2.87616230	    -59.76115697	      0.04089979	      0.86120922	     -0.45991322	     24.51627092	      9.93038303	    -16.48144531	    -12.63282734	      2.81428145	    -10.98586828	     -6.49680351	    -12.28916188	    -18.80573331	    -30.09568254	      8.95262784	     14.93101448	      0.36923534	     10.77656878	     -5.82398359
      3.12000000	     -9.52213090	      3.07303978	    -60.15977586	      0.04329393	      0.86276118	     -0.45214508	     23.74041838	     10.01936159	    -16.11586020	    -12.16504728	      3.19844910	    -10.82921741	     -5.69839197	    -12.45593100	    -18.13348722	    -32.11660947	      6.98037058	     14.99364824	      0.55925266	     10.60809690	     -5.76602905
      3.13000000	     -9.37663839	      3.28898831	    -60.56469438	      0.04563815	      0.86407973	     -0.44449647	     22.99667286	     10.09473123	    -15.77241796	    -11.69518478	      3.63462961	    -10.59444092	     -4.76223392	    -12.64054917	    -17.46489702	    -34.27132415	      5.11303695	     15.05828041	      0.77347624	     10.44656954	     -5.66820901
      3.14000000	     -9.20796726	      3.42180979	    -61.00611613	      0.04793544	      0.86535616	     -0.43693903	     22.15810695	     10.19549154	    -15.39747214	    -11.19637808	      3.99875834	    -10.45886751	     -3.85071126	    -12.83968536	    -16.79092077	    -36.46553665	      3.33347760	     15.04774914	      0.87870370	     10.32189570	     -5.48333708
      3.15000000	     -9.06503102	      3.52396401	    -61.46617773	      0.05018064	      0.86644039	     -0.42951680	     21.32082621	     10.32400764	    -15.01551044	    -10.70583057	      4.37409405	    -10.30414981	     -2.87131953	    -13.08444853	    -16.13524135	    -38.73085324	      1.77248158	     15.00808673	      0.95810359	     10.25322219	     -5.24054366
      3.16000000	     -8.94193203	      3.56867410	    -61.95587300	      0.05236021	      0.86738799	     -0.42220714	     20.45540323	     10.49164407	    -14.61509076	    -10.22830350	      4.74726602	    -10.15090563	     -1.87820741	    -13.37528999	    -15.50502802	    -41.01791400	      0.46594663	     14.94044712	      0.97757993	     10.24356638	     -4.92715642
      3.17000000	     -8.84821470	      3.55342500	    -62.47368175	      0.05445827	      0.86820429	     -0.41501524	     19.56718482	     10.70780034	    -14.18101150	     -9.76967972	      5.11698683	     -9.99538214	     -0.87890560	    -13.72060610	    -14.89995399	    -43.30211204	     -0.54601537	     14.84872009	      0.93556712	     10.30107981	     -4.55432476
      3.18000000	     -8.76763511	      3.47975455	    -63.02327500	      0.05648480	      0.86893227	     -0.40793729	     18.64904403	     10.95436028	    -13.71456780	     -9.33547850	      5.48812874	     -9.85772593	      0.10224289	    -14.09761698	    -14.32606174	    -45.53974421	     -1.25788776	     14.75764950	      0.82376018	     10.40601053	     -4.11363169
      3.19000000	     -8.70664393	      3.35821971	    -63.59990213	      0.05840980	      0.86957383	     -0.40096689	     17.71516797	     11.23247940	    -13.21349508	     -8.92908931	      5.85185002	     -9.72790016	      1.07416019	    -14.50990941	    -13.78121775	    -47.70852789	     -1.65367280	     14.66987777	      0.65601507	     10.55101039	     -3.61961419
      3.20000000	     -8.65320868	      3.20092721	    -64.20071593	      0.06023125	      0.87015992	     -0.39409916	     16.77109560	     11.52321039	    -12.68084948	     -8.55394388	      6.20946907	     -9.60830840	      2.03439103	    -14.93876697	    -13.26480515	    -49.77525186	     -1.76244317	     14.59403337	      0.43946699	     10.71294024	     -3.08046026
      3.21000000	     -8.59706519	      3.02376725	    -64.82452365	      0.06193881	      0.87071282	     -0.38732302	     15.82680147	     11.80908324	    -12.11909896	     -8.21205017	      6.56341984	     -9.50358591	      2.98612611	    -15.36603098	    -12.77546111	    -51.70909099	     -1.62770183	     14.53948037	      0.18747289	     10.86760769	     -2.49747047
      3.22000000	     -8.53285823	      2.83936170	    -65.46734471	      0.06352398	      0.87125487	     -0.38062982	     14.89045871	     12.07895798	    -11.53170802	     -7.90147239	      6.90464690	     -9.41002858	      3.93583769	    -15.78218712	    -12.31224778	    -53.48652563	     -1.29527616	     14.50317945	     -0.08616638	     10.99890176	     -1.88768329
      3.23000000	     -8.45433287	      2.66139008	    -66.12899263	      0.06498107	      0.87180070	     -0.37401119	     13.97116958	     12.32041273	    -10.91953424	     -7.62047658	      7.23428510	     -9.32716610	      4.88947594	    -16.17542386	    -11.87477566	    -55.08669266	     -0.81508461	     14.48423345	     -0.36694593	     11.09060468	     -1.25251844
      3.24000000	     -8.35735354	      2.50044550	    -66.80816489	      0.06629979	      0.87235814	     -0.36744933	     13.07558210	     12.52635979	    -10.28489136	     -7.36462695	      7.54796564	     -9.25233524	      5.85034008	    -16.54024220	    -11.46617987	    -56.49506058	     -0.23370343	     14.47744323	     -0.64089756	     11.13077569	     -0.60065108
